<svg viewBox="0 0 40 40" xmlns="http://www.w3.org/2000/svg" xmlns:xlink="http://www.w3.org/1999/xlink" width="40.000000" height="40.000000" fill="none" customFrame="#000000">
	<g id="facebook">
		<circle id="Ellipse" cx="20" cy="20" r="19.5" stroke="rgb(54,54,54)" stroke-width="1.000000" />
		<path id="Vector" d="M29 13.8186C29 12.3212 27.6788 11 26.1814 11L14.8186 11C13.3212 11 12 12.3212 12 13.8186L12 25.1813C12 26.6787 13.3212 28 14.8186 28L20.544 28L20.544 21.5699L18.4301 21.5699L18.4301 18.7513L20.544 18.7513L20.544 17.6062C20.544 15.6684 21.9534 13.9948 23.715 13.9948L26.0052 13.9948L26.0052 16.8135L23.715 16.8135C23.4508 16.8135 23.1865 17.0777 23.1865 17.6062L23.1865 18.7513L26.0052 18.7513L26.0052 21.5699L23.1865 21.5699L23.1865 28L26.1814 28C27.6788 28 29 26.6787 29 25.1813L29 13.8186Z" fill="rgb(255,255,255)" fill-rule="nonzero" />
	</g>
</svg>
