<svg viewBox="0 0 96 51.2463" xmlns="http://www.w3.org/2000/svg" xmlns:xlink="http://www.w3.org/1999/xlink" width="96.000000" height="51.246338" fill="none" customFrame="#000000">
	<rect id="all-white-onair-logo" width="95.999962" height="51.246204" x="0.000000" y="0.000000" />
	<g id="Group">
		<g id="allwhite-onair-logo">
			<path id="Vector" d="M52.6074 49.7912C58.9939 52.7963 67.8058 50.737 75.3008 47.3302C82.2924 44.1471 90.24 38.8284 94.2875 32.0931C96.8502 27.8198 96.2807 23.2252 94.262 19.1843L86.523 19.1843C81.7432 19.1843 79.3483 21.5802 79.3483 26.3706L79.3483 37.6538L76.272 37.6538L76.272 26.3706C76.272 19.5275 79.689 16.11 86.523 16.11L92.3858 16.11C91.8519 15.3671 91.2722 14.6552 90.6671 13.983C88.8823 11.9984 86.1925 10.1226 83.8687 8.34143C81.6263 6.62429 79.1958 5.27379 75.9618 3.76564C70.399 1.16476 61.5566 -1.20985 55.1853 0.682201C51.4378 1.79374 49.948 3.58359 48.2243 6.26633C47.8582 6.26633 45.7072 10.6937 44.9496 15.4464C43.5716 24.0576 43.2208 45.3725 52.6074 49.7912ZM70.1143 37.6538L70.1143 24.5655L67.0329 25.2871L67.0329 30.4746C67.0329 35.2584 64.638 37.6538 59.8481 37.6538L52.6684 37.6538C47.8785 37.6538 45.4886 35.6016 45.4886 31.4971C45.4886 28.5139 46.5259 26.8049 48.6056 26.3701L51.265 25.765L63.9312 22.8657C63.8041 20.4118 62.4414 19.1843 59.8481 19.1843L52.6684 19.1843C49.9277 19.1843 48.5649 20.5567 48.5649 23.2887L45.4886 23.2887C45.4886 18.5049 47.8785 16.1095 52.6684 16.1095L59.8481 16.1095C64.2465 16.1095 66.6262 18.1302 66.9821 22.167L73.1906 20.7463L73.1906 37.6538L70.1143 37.6538ZM13.3526 16.8656C17.7561 18.0285 20.746 21.7964 20.746 26.7423C20.746 32.7322 16.3629 37.033 10.3933 37.033C4.41866 37.033 0 32.7322 0 26.7423C0 22.2484 2.48643 18.7267 6.25427 17.248L6.25427 20.004C4.13899 21.3204 2.79155 23.7062 2.79155 26.7423C2.79155 31.4651 6.05089 34.6136 10.3933 34.6136C14.7357 34.6136 17.9544 31.4651 17.9544 26.7423C17.9544 23.1784 16.1188 20.5109 13.3526 19.4166L13.3526 16.8656ZM34.0478 16.4903C30.519 16.4903 27.763 17.911 26.2884 20.3685L26.2884 16.6439L23.6545 16.6439L23.6545 36.8408L26.4053 36.8408L26.4053 26.243C26.4053 21.6356 29.1613 18.9478 33.5393 18.9478C37.419 18.9478 39.6665 21.1363 39.6665 25.3984L39.6665 36.8408L42.4225 36.8408L42.4225 25.1299C42.4225 19.3317 39.0106 16.4903 34.0478 16.4903ZM59.8481 34.5724C62.5837 34.5724 63.9515 33.2061 63.9515 30.4746L63.9515 26.062L49.4039 29.4032C48.8446 29.599 48.5649 29.9493 48.5649 30.4746C48.5649 33.2061 49.9277 34.5724 52.6684 34.5724L59.8481 34.5724ZM11.5679 14.1727C11.5679 13.7018 11.3798 13.2503 11.0442 12.9178C10.7137 12.5847 10.2611 12.3981 9.79327 12.3981L9.78825 12.3981C9.32044 12.3981 8.86785 12.5847 8.53225 12.9178C8.20174 13.2503 8.01359 13.7018 8.01359 14.1727L8.01359 25.7808C8.01359 26.2516 8.20174 26.7027 8.53225 27.0357C8.86785 27.3683 9.32044 27.5554 9.78825 27.5554L9.79327 27.5554C10.2611 27.5554 10.7137 27.3683 11.0442 27.0357C11.3798 26.7027 11.5679 26.2516 11.5679 25.7808L11.5679 14.1727ZM71.6499 17.6502C70.2821 17.6502 69.5957 16.9637 69.5957 15.598C69.5957 14.2251 70.2821 13.5458 71.6499 13.5458C73.0228 13.5458 73.6991 14.2251 73.6991 15.598C73.6991 16.9637 73.0228 17.6502 71.6499 17.6502Z" fill="rgb(255,255,255)" fill-rule="evenodd" />
		</g>
	</g>
</svg>
